<svg width="413" height="222" viewBox="0 0 413 222" fill="none" xmlns="http://www.w3.org/2000/svg">
<rect width="413" height="222" fill="#FFFF00"/>
<rect y="38" width="413" height="184" fill="white"/>
<rect y="38" width="151" height="98" fill="#0A3161"/>
<rect y="40" width="144" height="98" fill="#0A3161"/>
<rect x="144" y="38" width="269" height="14" fill="#B31942"/>
<rect x="151" y="80" width="262" height="14" fill="#C4C4C4"/>
<rect x="144" y="94" width="269" height="14" fill="#B31942"/>
<rect x="144" y="80" width="269" height="14" fill="white"/>
<rect x="144" y="122" width="269" height="14" fill="#B31942"/>
<rect x="144" y="66" width="269" height="14" fill="#B31942"/>
<rect y="136" width="413" height="14" fill="white"/>
<rect y="150" width="413" height="14" fill="#B31942"/>
<rect y="179" width="413" height="14" fill="#B31942"/>
<rect y="208" width="413" height="14" fill="#B31942"/>
<rect y="164" width="413" height="14" fill="white"/>
<rect y="194" width="413" height="14" fill="white"/>
<rect x="144" y="108" width="269" height="14" fill="white"/>
<rect x="144" y="52" width="269" height="14" fill="white"/>
<path d="M10 44L10.6735 46.4184H12.8532L11.0898 47.9131L11.7634 50.3316L10 48.8369L8.23664 50.3316L8.91019 47.9131L7.14683 46.4184H9.32646L10 44Z" fill="white"/>
<path d="M10 66L10.6735 68.4184H12.8532L11.0898 69.9131L11.7634 72.3316L10 70.8369L8.23664 72.3316L8.91019 69.9131L7.14683 68.4184H9.32646L10 66Z" fill="white"/>
<path d="M10 86L10.6735 88.4184H12.8532L11.0898 89.9131L11.7634 92.3316L10 90.8369L8.23664 92.3316L8.91019 89.9131L7.14683 88.4184H9.32646L10 86Z" fill="white"/>
<path d="M36 86L36.6735 88.4184H38.8532L37.0898 89.9131L37.7634 92.3316L36 90.8369L34.2366 92.3316L34.9102 89.9131L33.1468 88.4184H35.3265L36 86Z" fill="white"/>
<path d="M61 87L61.6735 89.4184H63.8532L62.0898 90.9131L62.7634 93.3316L61 91.8369L59.2366 93.3316L59.9102 90.9131L58.1468 89.4184H60.3265L61 87Z" fill="white"/>
<path d="M86 87L86.6735 89.4184H88.8532L87.0898 90.9131L87.7634 93.3316L86 91.8369L84.2366 93.3316L84.9102 90.9131L83.1468 89.4184H85.3265L86 87Z" fill="white"/>
<path d="M112 87L112.674 89.4184H114.853L113.09 90.9131L113.763 93.3316L112 91.8369L110.237 93.3316L110.91 90.9131L109.147 89.4184H111.326L112 87Z" fill="white"/>
<path d="M136 87L136.674 89.4184H138.853L137.09 90.9131L137.763 93.3316L136 91.8369L134.237 93.3316L134.91 90.9131L133.147 89.4184H135.326L136 87Z" fill="white"/>
<path d="M10 104L10.6735 106.418H12.8532L11.0898 107.913L11.7634 110.332L10 108.837L8.23664 110.332L8.91019 107.913L7.14683 106.418H9.32646L10 104Z" fill="white"/>
<path d="M36 104L36.6735 106.418H38.8532L37.0898 107.913L37.7634 110.332L36 108.837L34.2366 110.332L34.9102 107.913L33.1468 106.418H35.3265L36 104Z" fill="white"/>
<path d="M61 104L61.6735 106.418H63.8532L62.0898 107.913L62.7634 110.332L61 108.837L59.2366 110.332L59.9102 107.913L58.1468 106.418H60.3265L61 104Z" fill="white"/>
<path d="M86 104L86.6735 106.418H88.8532L87.0898 107.913L87.7634 110.332L86 108.837L84.2366 110.332L84.9102 107.913L83.1468 106.418H85.3265L86 104Z" fill="white"/>
<path d="M112 104L112.674 106.418H114.853L113.09 107.913L113.763 110.332L112 108.837L110.237 110.332L110.91 107.913L109.147 106.418H111.326L112 104Z" fill="white"/>
<path d="M136 104L136.674 106.418H138.853L137.09 107.913L137.763 110.332L136 108.837L134.237 110.332L134.91 107.913L133.147 106.418H135.326L136 104Z" fill="white"/>
<path d="M10 125L10.6735 127.418H12.8532L11.0898 128.913L11.7634 131.332L10 129.837L8.23664 131.332L8.91019 128.913L7.14683 127.418H9.32646L10 125Z" fill="white"/>
<path d="M36 125L36.6735 127.418H38.8532L37.0898 128.913L37.7634 131.332L36 129.837L34.2366 131.332L34.9102 128.913L33.1468 127.418H35.3265L36 125Z" fill="white"/>
<path d="M61 126L61.6735 128.418H63.8532L62.0898 129.913L62.7634 132.332L61 130.837L59.2366 132.332L59.9102 129.913L58.1468 128.418H60.3265L61 126Z" fill="white"/>
<path d="M86 126L86.6735 128.418H88.8532L87.0898 129.913L87.7634 132.332L86 130.837L84.2366 132.332L84.9102 129.913L83.1468 128.418H85.3265L86 126Z" fill="white"/>
<path d="M112 126L112.674 128.418H114.853L113.09 129.913L113.763 132.332L112 130.837L110.237 132.332L110.91 129.913L109.147 128.418H111.326L112 126Z" fill="white"/>
<path d="M136 126L136.674 128.418H138.853L137.09 129.913L137.763 132.332L136 130.837L134.237 132.332L134.91 129.913L133.147 128.418H135.326L136 126Z" fill="white"/>
<path d="M36 66L36.6735 68.4184H38.8532L37.0898 69.9131L37.7634 72.3316L36 70.8369L34.2366 72.3316L34.9102 69.9131L33.1468 68.4184H35.3265L36 66Z" fill="white"/>
<path d="M24 77L24.6735 79.4184H26.8532L25.0898 80.9131L25.7634 83.3316L24 81.8369L22.2366 83.3316L22.9102 80.9131L21.1468 79.4184H23.3265L24 77Z" fill="white"/>
<path d="M24 94L24.6735 96.4184H26.8532L25.0898 97.9131L25.7634 100.332L24 98.8369L22.2366 100.332L22.9102 97.9131L21.1468 96.4184H23.3265L24 94Z" fill="white"/>
<path d="M24 115L24.6735 117.418H26.8532L25.0898 118.913L25.7634 121.332L24 119.837L22.2366 121.332L22.9102 118.913L21.1468 117.418H23.3265L24 115Z" fill="white"/>
<path d="M48 115L48.6735 117.418H50.8532L49.0898 118.913L49.7634 121.332L48 119.837L46.2366 121.332L46.9102 118.913L45.1468 117.418H47.3265L48 115Z" fill="white"/>
<path d="M72 115L72.6735 117.418H74.8532L73.0898 118.913L73.7634 121.332L72 119.837L70.2366 121.332L70.9102 118.913L69.1468 117.418H71.3265L72 115Z" fill="white"/>
<path d="M96 115L96.6735 117.418H98.8532L97.0898 118.913L97.7634 121.332L96 119.837L94.2366 121.332L94.9102 118.913L93.1468 117.418H95.3265L96 115Z" fill="white"/>
<path d="M123 115L123.674 117.418H125.853L124.09 118.913L124.763 121.332L123 119.837L121.237 121.332L121.91 118.913L120.147 117.418H122.326L123 115Z" fill="white"/>
<path d="M48 94L48.6735 96.4184H50.8532L49.0898 97.9131L49.7634 100.332L48 98.8369L46.2366 100.332L46.9102 97.9131L45.1468 96.4184H47.3265L48 94Z" fill="white"/>
<path d="M72 94L72.6735 96.4184H74.8532L73.0898 97.9131L73.7634 100.332L72 98.8369L70.2366 100.332L70.9102 97.9131L69.1468 96.4184H71.3265L72 94Z" fill="white"/>
<path d="M96 94L96.6735 96.4184H98.8532L97.0898 97.9131L97.7634 100.332L96 98.8369L94.2366 100.332L94.9102 97.9131L93.1468 96.4184H95.3265L96 94Z" fill="white"/>
<path d="M123 96L123.674 98.4184H125.853L124.09 99.9131L124.763 102.332L123 100.837L121.237 102.332L121.91 99.9131L120.147 98.4184H122.326L123 96Z" fill="white"/>
<path d="M48 77L48.6735 79.4184H50.8532L49.0898 80.9131L49.7634 83.3316L48 81.8369L46.2366 83.3316L46.9102 80.9131L45.1468 79.4184H47.3265L48 77Z" fill="white"/>
<path d="M72 77L72.6735 79.4184H74.8532L73.0898 80.9131L73.7634 83.3316L72 81.8369L70.2366 83.3316L70.9102 80.9131L69.1468 79.4184H71.3265L72 77Z" fill="white"/>
<path d="M96 77L96.6735 79.4184H98.8532L97.0898 80.9131L97.7634 83.3316L96 81.8369L94.2366 83.3316L94.9102 80.9131L93.1468 79.4184H95.3265L96 77Z" fill="white"/>
<path d="M123 77L123.674 79.4184H125.853L124.09 80.9131L124.763 83.3316L123 81.8369L121.237 83.3316L121.91 80.9131L120.147 79.4184H122.326L123 77Z" fill="white"/>
<path d="M61 66L61.6735 68.4184H63.8532L62.0898 69.9131L62.7634 72.3316L61 70.8369L59.2366 72.3316L59.9102 69.9131L58.1468 68.4184H60.3265L61 66Z" fill="white"/>
<path d="M85 66L85.6735 68.4184H87.8532L86.0898 69.9131L86.7634 72.3316L85 70.8369L83.2366 72.3316L83.9102 69.9131L82.1468 68.4184H84.3265L85 66Z" fill="white"/>
<path d="M112 66L112.674 68.4184H114.853L113.09 69.9131L113.763 72.3316L112 70.8369L110.237 72.3316L110.91 69.9131L109.147 68.4184H111.326L112 66Z" fill="white"/>
<path d="M136 66L136.674 68.4184H138.853L137.09 69.9131L137.763 72.3316L136 70.8369L134.237 72.3316L134.91 69.9131L133.147 68.4184H135.326L136 66Z" fill="white"/>
<path d="M24 56L24.6735 58.4184H26.8532L25.0898 59.9131L25.7634 62.3316L24 60.8369L22.2366 62.3316L22.9102 59.9131L21.1468 58.4184H23.3265L24 56Z" fill="white"/>
<path d="M123 56L123.674 58.4184H125.853L124.09 59.9131L124.763 62.3316L123 60.8369L121.237 62.3316L121.91 59.9131L120.147 58.4184H122.326L123 56Z" fill="white"/>
<path d="M96 56L96.6735 58.4184H98.8532L97.0898 59.9131L97.7634 62.3316L96 60.8369L94.2366 62.3316L94.9102 59.9131L93.1468 58.4184H95.3265L96 56Z" fill="white"/>
<path d="M72 56L72.6735 58.4184H74.8532L73.0898 59.9131L73.7634 62.3316L72 60.8369L70.2366 62.3316L70.9102 59.9131L69.1468 58.4184H71.3265L72 56Z" fill="white"/>
<path d="M48 56L48.6735 58.4184H50.8532L49.0898 59.9131L49.7634 62.3316L48 60.8369L46.2366 62.3316L46.9102 59.9131L45.1468 58.4184H47.3265L48 56Z" fill="white"/>
<path d="M83 45L83.6735 47.4184H85.8532L84.0898 48.9131L84.7634 51.3316L83 49.8369L81.2366 51.3316L81.9102 48.9131L80.1468 47.4184H82.3265L83 45Z" fill="white"/>
<path d="M136 45L136.674 47.4184H138.853L137.09 48.9131L137.763 51.3316L136 49.8369L134.237 51.3316L134.91 48.9131L133.147 47.4184H135.326L136 45Z" fill="white"/>
<path d="M109 45L109.674 47.4184H111.853L110.09 48.9131L110.763 51.3316L109 49.8369L107.237 51.3316L107.91 48.9131L106.147 47.4184H108.326L109 45Z" fill="white"/>
<path d="M61 45L61.6735 47.4184H63.8532L62.0898 48.9131L62.7634 51.3316L61 49.8369L59.2366 51.3316L59.9102 48.9131L58.1468 47.4184H60.3265L61 45Z" fill="white"/>
<path d="M36 45L36.6735 47.4184H38.8532L37.0898 48.9131L37.7634 51.3316L36 49.8369L34.2366 51.3316L34.9102 48.9131L33.1468 47.4184H35.3265L36 45Z" fill="white"/>
<path d="M164.211 22.1152C161.539 24.9746 159.248 26.4043 157.338 26.4043C156.342 26.4043 155.41 25.9531 154.543 25.0508C153.676 24.1484 153.277 22.6309 153.348 20.498C151.297 24.4355 148.965 26.4043 146.352 26.4043C145.086 26.4043 144.066 25.918 143.293 24.9453C142.531 23.9727 142.15 22.666 142.15 21.0254C142.15 19.2559 142.865 16.332 144.295 12.2539C145.502 8.76172 146.105 6.44141 146.105 5.29297C146.105 4.47266 145.912 3.81641 145.525 3.32422C145.15 2.82031 144.658 2.56836 144.049 2.56836C143.123 2.56836 142.227 3.11914 141.359 4.2207C140.492 5.31055 140.059 6.45312 140.059 7.64844C140.059 8.70312 140.451 9.58789 141.236 10.3027C141.529 10.5605 141.676 10.7773 141.676 10.9531C141.676 11.3398 141.418 11.8145 140.902 12.377C140.387 12.9395 139.924 13.2207 139.514 13.2207C139.033 13.2207 138.576 12.875 138.143 12.1836C137.709 11.4922 137.492 10.7363 137.492 9.91602C137.492 7.67773 138.301 5.62695 139.918 3.76367C141.535 1.88867 143.299 0.951172 145.209 0.951172C146.709 0.951172 147.928 1.53711 148.865 2.70898C149.803 3.86914 150.271 5.39258 150.271 7.2793C150.271 9.49414 149.58 12.541 148.197 16.4199C147.236 19.1035 146.756 20.9141 146.756 21.8516C146.756 22.4609 146.891 22.9414 147.16 23.293C147.441 23.6328 147.822 23.8027 148.303 23.8027C149.205 23.8027 150.066 23.1934 150.887 21.9746C151.707 20.7559 152.357 19.4785 152.838 18.1426C153.33 16.8066 153.922 14.8555 154.613 12.2891L156.143 6.82227C156.564 5.36914 156.934 4.17969 157.25 3.25391C157.566 2.31641 157.766 1.78906 157.848 1.67188C157.941 1.54297 158.088 1.45508 158.287 1.4082C158.498 1.36133 158.891 1.30273 159.465 1.23242L161.979 0.951172C162.342 0.951172 162.5 1.0332 162.453 1.19727L161.627 4.18555C160.854 6.93945 160.027 10.2031 159.148 13.9766C158.281 17.75 157.848 20.1523 157.848 21.1836C157.848 21.957 157.994 22.5781 158.287 23.0469C158.58 23.5039 158.973 23.7324 159.465 23.7324C160.016 23.7324 160.613 23.4922 161.258 23.0117C161.902 22.5312 162.887 21.5586 164.211 20.0938V22.1152ZM182.562 4.11523C182.562 4.57227 181.807 5.69727 180.295 7.49023H179.979C179.744 7.39648 179.598 7.05078 179.539 6.45312C179.41 5.24609 178.994 4.26172 178.291 3.5C177.588 2.72656 176.744 2.33984 175.76 2.33984C174.834 2.33984 174.037 2.67969 173.369 3.35938C172.701 4.02734 172.367 4.83008 172.367 5.76758C172.367 6.44727 172.578 7.17969 173 7.96484C173.422 8.73828 174.518 9.96875 176.287 11.6562C178.068 13.3438 179.211 14.6914 179.715 15.6992C180.219 16.6953 180.471 17.6445 180.471 18.5469C180.471 20.6328 179.562 22.4727 177.746 24.0664C175.941 25.6484 173.826 26.4395 171.4 26.4395C169.396 26.4395 167.744 25.9766 166.443 25.0508C165.143 24.1133 164.492 23.3516 164.492 22.7656C164.492 22.4375 164.85 21.6758 165.564 20.4805C166.279 19.2852 166.689 18.6875 166.795 18.6875C167.17 18.6875 167.434 18.7988 167.586 19.0215C167.75 19.2324 167.861 19.6309 167.92 20.2168C168.096 22.0449 168.535 23.3047 169.238 23.9961C169.953 24.6875 170.879 25.0332 172.016 25.0332C173.258 25.0332 174.342 24.6055 175.268 23.75C176.193 22.8828 176.656 21.8809 176.656 20.7441C176.656 20.1582 176.475 19.5371 176.111 18.8809C175.76 18.2129 174.746 17.0879 173.07 15.5059C171.406 13.9121 170.316 12.5645 169.801 11.4629C169.285 10.3613 169.027 9.28906 169.027 8.24609C169.027 6.42969 169.713 4.75977 171.084 3.23633C172.455 1.71289 174.277 0.951172 176.551 0.951172C178.273 0.951172 179.703 1.34961 180.84 2.14648C181.988 2.93164 182.562 3.58789 182.562 4.11523ZM208.121 22.1152C205.426 24.998 202.953 26.4395 200.703 26.4395C199.461 26.4395 198.477 26 197.75 25.1211C197.023 24.2422 196.619 22.9883 196.537 21.3594C195.119 23.082 193.859 24.3594 192.758 25.1914C191.668 26.0234 190.502 26.4395 189.26 26.4395C187.666 26.4395 186.383 25.7539 185.41 24.3828C184.449 23 183.969 21.1602 183.969 18.8633C183.969 16.1211 184.602 13.2969 185.867 10.3906C187.133 7.47266 189.008 5.16992 191.492 3.48242C193.977 1.79492 196.988 0.951172 200.527 0.951172C203.176 0.951172 205.572 1.30859 207.717 2.02344V3.18359C205.971 5.22266 204.506 8.07617 203.322 11.7441C202.15 15.4121 201.564 18.207 201.564 20.1289C201.564 21.0664 201.752 21.793 202.127 22.3086C202.514 22.8242 203.047 23.082 203.727 23.082C204.945 23.082 206.41 22.0859 208.121 20.0938V22.1152ZM203.006 3.18359C201.928 2.59766 200.768 2.30469 199.525 2.30469C197.568 2.30469 195.805 3.125 194.234 4.76562C192.664 6.39453 191.422 8.55664 190.508 11.252C189.605 13.9473 189.154 16.2852 189.154 18.2656C189.154 19.5898 189.406 20.668 189.91 21.5C190.426 22.3203 191.082 22.7305 191.879 22.7305C193.262 22.7305 194.85 21.4707 196.643 18.9512C197.381 12.3418 199.502 7.08594 203.006 3.18359ZM238.496 0.617188C238.215 2.19922 237.775 3.34766 237.178 4.0625C236.58 4.76562 235.449 5.11719 233.785 5.11719L228.301 4.97656C226.684 4.97656 225.371 5.29297 224.363 5.92578C223.367 6.54687 222.869 7.41992 222.869 8.54492C222.869 9.59961 223.508 10.4258 224.785 11.0234C225.219 11.2227 225.436 11.4043 225.436 11.5684C225.436 11.8965 225.195 12.3066 224.715 12.7988C224.246 13.2793 223.701 13.6367 223.08 13.8711C221.498 13.4375 220.707 12.418 220.707 10.8125C220.707 9.6875 221.152 8.28125 222.043 6.59375C222.934 4.89453 224.129 3.51172 225.629 2.44531C227.129 1.36719 228.793 0.828125 230.621 0.828125C230.773 0.828125 231.605 0.892578 233.117 1.02148C234.641 1.13867 235.561 1.19727 235.877 1.19727C236.826 1.19727 237.4 1.00391 237.6 0.617188H238.496ZM237.74 11.3398L237.424 14.416C237.236 14.6738 236.85 14.9258 236.264 15.1719C235.678 15.4062 234.646 15.7168 233.17 16.1035C232.889 19.1738 231.863 21.6523 230.094 23.5391C228.324 25.4141 226.098 26.3516 223.414 26.3516C221.527 26.3516 220.057 25.9414 219.002 25.1211C217.959 24.3008 217.438 23.4922 217.438 22.6953C217.438 22.3203 217.842 21.7695 218.65 21.043C219.471 20.3164 220.074 19.9531 220.461 19.9531C220.754 19.9531 220.936 20.0645 221.006 20.2871C221.076 20.498 221.111 21.043 221.111 21.9219C221.123 22.7891 221.346 23.5215 221.779 24.1191C222.225 24.7051 222.84 24.998 223.625 24.998C225.992 24.998 227.504 22.5488 228.16 17.6504C227.082 17.8848 225.857 18.3887 224.486 19.1621L225.242 16.7891C226.238 15.9336 227.299 15.3066 228.424 14.9082C228.6 13.0215 228.916 11.5215 229.373 10.4082C229.842 9.29492 230.604 8.20508 231.658 7.13867C233.053 6.96289 234.002 6.86328 234.506 6.83984C234.107 7.61328 233.832 8.36328 233.68 9.08984C233.527 9.81641 233.428 11.1465 233.381 13.0801C234.916 12.5762 236.369 11.9961 237.74 11.3398ZM261.734 22.1152C258.957 24.9395 256.115 26.3516 253.209 26.3516C252.365 26.3516 251.551 26.2402 250.766 26.0176C249.992 25.8066 249.043 25.4434 247.918 24.9277C246.805 24.4121 245.82 24.0371 244.965 23.8027C243.383 25.5371 241.953 26.4043 240.676 26.4043C240.23 26.4043 239.861 26.2578 239.568 25.9648C239.275 25.6719 239.129 25.3145 239.129 24.8926C239.129 24.002 239.562 23.2227 240.43 22.5547C241.309 21.875 242.545 21.4062 244.139 21.1484C244.807 20.2344 245.234 19.3438 245.422 18.4766C245.609 17.5977 245.756 16.1562 245.861 14.1523C246.061 10.0273 247.162 6.79883 249.166 4.4668C251.182 2.12305 253.367 0.951172 255.723 0.951172C257.34 0.951172 258.664 1.4668 259.695 2.49805C260.738 3.51758 261.26 4.82422 261.26 6.41797C261.26 8.25781 260.715 9.86914 259.625 11.252C258.535 12.6348 257.281 13.3262 255.863 13.3262C255.125 13.3262 254.545 13.127 254.123 12.7285C253.701 12.3184 253.49 11.7617 253.49 11.0586C253.49 10.6953 253.561 10.2734 253.701 9.79297C254.018 10.1562 254.416 10.3379 254.896 10.3379C255.693 10.3379 256.391 9.86328 256.988 8.91406C257.586 7.96484 257.885 6.83398 257.885 5.52148C257.885 4.51367 257.656 3.72266 257.199 3.14844C256.742 2.5625 256.115 2.26953 255.318 2.26953C254.357 2.26953 253.607 2.61523 253.068 3.30664C252.541 3.99805 252.172 4.82422 251.961 5.78516C251.75 6.74609 251.521 8.29883 251.275 10.4434C251.041 12.5879 250.643 14.4922 250.08 16.1562C249.529 17.8086 248.492 19.4316 246.969 21.0254C247.965 20.9551 248.826 21.0137 249.553 21.2012C250.291 21.3887 251.34 21.7461 252.699 22.2734C254.07 22.7891 255.248 23.0469 256.232 23.0469C258.154 23.0469 259.988 22.0625 261.734 20.0938V22.1152ZM286.098 22.1152C283.402 24.998 280.93 26.4395 278.68 26.4395C277.438 26.4395 276.453 26 275.727 25.1211C275 24.2422 274.596 22.9883 274.514 21.3594C273.096 23.082 271.836 24.3594 270.734 25.1914C269.645 26.0234 268.479 26.4395 267.236 26.4395C265.643 26.4395 264.359 25.7539 263.387 24.3828C262.426 23 261.945 21.1602 261.945 18.8633C261.945 16.1211 262.578 13.2969 263.844 10.3906C265.109 7.47266 266.984 5.16992 269.469 3.48242C271.953 1.79492 274.965 0.951172 278.504 0.951172C281.152 0.951172 283.549 1.30859 285.693 2.02344V3.18359C283.947 5.22266 282.482 8.07617 281.299 11.7441C280.127 15.4121 279.541 18.207 279.541 20.1289C279.541 21.0664 279.729 21.793 280.104 22.3086C280.49 22.8242 281.023 23.082 281.703 23.082C282.922 23.082 284.387 22.0859 286.098 20.0938V22.1152ZM280.982 3.18359C279.904 2.59766 278.744 2.30469 277.502 2.30469C275.545 2.30469 273.781 3.125 272.211 4.76562C270.641 6.39453 269.398 8.55664 268.484 11.252C267.582 13.9473 267.131 16.2852 267.131 18.2656C267.131 19.5898 267.383 20.668 267.887 21.5C268.402 22.3203 269.059 22.7305 269.855 22.7305C271.238 22.7305 272.826 21.4707 274.619 18.9512C275.357 12.3418 277.479 7.08594 280.982 3.18359ZM308.949 22.1152C308.152 23.041 306.629 24.084 304.379 25.2441C303.91 28.3613 302.873 30.7695 301.268 32.4688C299.662 34.1797 297.857 35.0352 295.854 35.0352C294.893 35.0352 294.137 34.8125 293.586 34.3672C293.047 33.9219 292.777 33.3066 292.777 32.5215C292.777 30.3418 294.893 28.2266 299.123 26.1758C299.568 24.5938 300.002 23.1699 300.424 21.9043C299.686 22.9707 298.613 23.9141 297.207 24.7344C295.801 25.5547 294.494 25.9648 293.287 25.9648C291.318 25.9648 289.678 25.1152 288.365 23.416C287.064 21.7051 286.414 19.543 286.414 16.9297C286.414 14.1758 287.152 11.5684 288.629 9.10742C290.105 6.63477 292.045 4.66016 294.447 3.18359C296.85 1.69531 299.176 0.951172 301.426 0.951172C303.441 0.951172 305.076 1.52539 306.33 2.67383C307.596 3.82227 308.229 5.31055 308.229 7.13867C308.229 9.10742 307.52 10.8418 306.102 12.3418C304.684 13.8418 303.055 14.5918 301.215 14.5918C300.137 14.5918 299.24 14.3281 298.525 13.8008C297.822 13.2734 297.471 12.623 297.471 11.8496C297.471 11.3809 297.605 10.9648 297.875 10.6016C298.156 10.2383 298.479 10.0566 298.842 10.0566C299.193 10.0566 299.369 10.2617 299.369 10.6719C299.369 11.0352 299.504 11.3164 299.773 11.5156C300.043 11.7148 300.354 11.8145 300.705 11.8145C301.643 11.8145 302.539 11.1758 303.395 9.89844C304.262 8.60938 304.695 7.23242 304.695 5.76758C304.695 4.73633 304.361 3.89844 303.693 3.25391C303.025 2.59766 302.164 2.26953 301.109 2.26953C299.527 2.26953 297.992 2.97266 296.504 4.37891C295.027 5.78516 293.82 7.63672 292.883 9.93359C291.957 12.2188 291.494 14.3926 291.494 16.4551C291.494 18.3535 291.904 19.8652 292.725 20.9902C293.545 22.1035 294.635 22.6602 295.994 22.6602C298.291 22.6602 300.488 21.0371 302.586 17.791L305.891 17.3164C306.301 17.2578 306.506 17.3574 306.506 17.6152C306.506 17.7324 306.348 18.2363 306.031 19.127C305.715 20.0176 305.281 21.5059 304.73 23.5918C306.547 22.5371 307.953 21.3711 308.949 20.0938V22.1152ZM298.719 27.9512C295.672 29.4746 294.148 30.9746 294.148 32.4512C294.148 33.2363 294.523 33.6289 295.273 33.6289C296.75 33.6289 297.898 31.7363 298.719 27.9512Z" fill="#009900"/>
</svg>
